PathFileType	4	(X/Y/Z)	C:/Users/beibeiliu/ov580/test_trc/User2\sequence.20_training_dense_right.trc
DataRate	CameraRate	NumFrames	NumMarkers	Units	OrigDataRate	OrigDataStartFrame	OrigNumFrames
120	120	18	19	mm	120	239	318
Frame#	Time	ThumbCMC			ThumbMCP			ThumbIP			ThumbTip			IndexMCP			IndexPIP			IndexTip			MiddleMCP			MiddlePIP			MiddleTip			RingMCP			RingPIP			RingTip			PinkyMCP			PinkyPIP			PinkyTip			BackHand1			BackHand2			BackHand3	
		X0	Y0	Z0	X1	Y1	Z1	X2	Y2	Z2	X3	Y3	Z3	X4	Y4	Z4	X5	Y5	Z5	X6	Y6	Z6	X7	Y7	Z7	X8	Y8	Z8	X9	Y9	Z9	X10	Y10	Z10	X11	Y11	Z11	X12	Y12	Z12	X13	Y13	Z13	X14	Y14	Z14	X15	Y15	Z15	X16	Y16	Z16	X17	Y17	Z17	X18	Y18	Z18	
238	1.98333	75.928	37.8134	61.3382	54.9995	52.9337	35.9238	35.0751	44.5245	4.16399	32.3025	15.2811	-7.25705	68.8835	26.1625	-25.2981	58.0996	29.0031	-49.06	50.949	22.4456	-76.5054	76.4222	9.22664	-36.0712	65.732	6.31217	-67.6093	60.7484	6.67823	-92.5386	81.7628	-10.1882	-31.0804	75.076	-12.1993	-54.9718	66.1753	-9.75567	-86.8518	82.7109	-32.6287	-15.5687	74.9656	-28.5993	-37.6895	72.3122	-23.8168	-62.3848	105.199	-11.6258	21.8684	118.628	-14.7082	51.4133	103.054	22.1086	36.343	
239	1.99167	80.8064	42.3555	54.8527	62.9449	56.43	34.4921	39.67	48.4277	5.7004	33.4251	16.7409	-6.38063	70.01	29.2875	-25.7976	59.3297	25.9902	-50.031	49.9047	21.4289	-77.2432	74.2281	5.93098	-36.0348	63.9879	2.93761	-63.4419	55.0676	5.99425	-93.83	76.116	-15.2163	-32.8425	67.3179	-15.5795	-56.8143	58.017	-14.0448	-85.2595	74.8349	-35.6668	-10.7284	65.5989	-30.6282	-34.5909	62.8431	-30.6158	-62.1096	98.1916	-15.6401	19.1104	115.179	-15.4984	47.9549	105.562	17.1955	36.6085	
240	2	88.1895	39.1711	53.1912	70.1671	61.4473	28.4418	46.6361	52.5368	4.57888	31.1367	27.6675	-7.03482	70.2257	24.0079	-29.4974	57.8306	22.6764	-54.5832	46.575	21.6787	-75.6497	69.3617	3.14918	-37.6073	57.3665	4.51276	-62.1359	46.9153	5.70474	-94.6318	68.228	-15.2972	-29.2586	57.7067	-13.9534	-54.9532	48.83	-11.1286	-77.9218	65.5856	-35.1726	-12.7759	56.131	-29.9499	-32.3317	49.511	-28.7559	-55.778	96.031	-22.1842	22.3056	115.359	-23.9463	50.2887	108.153	13.1266	31.3527	
241	2.00833	96.5454	40.1863	48.6866	79.2731	61.3244	23.3674	53.5823	53.1351	0.324328	35.8111	28.978	-5.80169	70.3282	24.9053	-28.8318	57.5674	24.2906	-51.3729	43.1641	23.9424	-75.3677	65.1723	4.2375	-36.0121	51.4628	6.58799	-61.5643	38.6419	0.986605	-87.8551	60.4267	-14.6639	-27.7572	47.5775	-13.7277	-52.0672	36.6311	-13.3822	-74.742	56.2006	-32.0995	-6.51929	44.647	-28.3405	-28.9603	37.3793	-27.9395	-55.2515	92.6926	-22.6423	21.515	110.217	-23.6513	48.6395	108.56	9.6322	27.6911	
242	2.01667	103.752	38.8476	43.9996	89.5849	57.562	21.1016	59.9273	56.8408	-2.52842	39.8239	37.5128	-4.64903	73.9696	25.5893	-28.8118	57.08	24.3778	-52.0962	40.3637	20.7821	-74.3997	62.2889	2.03162	-34.2695	46.837	7.10676	-62.6745	33.27	1.92041	-85.448	54.7424	-14.9349	-23.1542	41.5335	-11.3912	-48.0897	27.2403	-11.9786	-74.9563	49.3542	-30.1593	-1.68301	36.0551	-26.2953	-27.4318	30.4462	-23.7902	-51.11	86.2337	-21.6987	20.8643	107.742	-28.452	49.0304	111.681	5.98891	29.8965	
243	2.025	112.71	37.742	44.6464	99.4006	57.879	17.0969	68.5875	54.8374	-4.94823	43.8421	39.9147	-9.26609	73.069	19.8225	-34.6317	59.355	22.7482	-54.567	42.5498	20.7792	-76.017	63.0235	-0.314883	-32.7258	47.195	1.92979	-59.0742	31.9957	1.59907	-86.4364	52.9076	-13.3733	-23.8146	39.7135	-10.5024	-45.2918	26.8435	-9.44192	-69.363	46.9022	-24.3795	-0.16356	33.7077	-21.109	-23.9687	25.6639	-20.0728	-43.0279	83.154	-27.1135	21.5341	104.761	-29.5522	48.7539	113.522	2.79542	26.2934	
244	2.03333	118	34.5191	42.9406	106.284	52.8666	13.6148	74.5933	52.6877	-9.37501	50.1281	39.3662	-11.2172	76.9366	15.6388	-33.8515	62.631	17.9816	-57.441	44.6734	17.9853	-80.5556	67.8777	-0.874316	-34.8833	49.0858	-0.623086	-60.7193	34.5455	-0.1413	-89.3546	54.1465	-17.5139	-24.1959	40.3985	-16.3408	-43.6842	28.0597	-12.0275	-73.2799	46.5814	-26.7907	-0.10577	34.9782	-20.7179	-22.3983	25.5181	-21.7706	-47.0115	88.689	-26.9893	23.2712	105.676	-31.5204	50.1985	114.524	-0.0633005	22.4381	
245	2.04167	123.206	31.4883	39.8931	113.447	49.4113	9.21661	85.7155	50.572	-11.0972	58.3651	36.9327	-12.434	85.4508	12.0904	-34.8673	73.2094	15.8091	-59.1864	51.9707	12.5119	-84.091	71.6207	-7.69404	-38.8323	57.375	-4.54458	-63.2734	45.4324	-5.03974	-90.1443	57.8692	-21.8525	-24.8462	46.8445	-17.3436	-48.8086	34.9149	-17.2887	-71.6	47.682	-28.2011	-4.96167	38.3402	-22.2803	-24.1678	32.2625	-22.2476	-47.8963	87.3959	-28.644	20.7337	108.528	-32.9238	50.832	119.303	-2.96228	24.9663	
246	2.05	129.02	29.6321	35.2677	120.909	45.9485	4.80968	93.0606	45.9071	-15.8749	66.1873	30.7296	-17.4159	94.4695	7.16697	-38.5791	83.1823	8.46055	-66.8712	68.9118	6.70293	-87.8008	80.8942	-12.1955	-43.4458	68.0855	-12.0458	-69.7964	57.6572	-9.88969	-99.9241	69.143	-20.5922	-29.5718	55.748	-22.9955	-53.4533	45.9224	-22.3701	-78.5053	55.118	-27.9797	-6.5897	46.8066	-24.8505	-26.308	41.8097	-26.8586	-54.7935	90.719	-33.6546	21.0581	108.805	-35.7263	50.7918	124.713	-6.10296	24.5143	
247	2.05833	134.542	27.2434	34.3348	129.391	42.2957	1.91737	102.44	42.4602	-22.879	74.843	28.3887	-26.8933	107.122	3.5022	-42.159	95.2258	2.21467	-70.1712	83.1863	1.17022	-96.3655	92.8546	-14.7967	-45.1233	82.417	-15.8775	-74.6695	73.8074	-16.927	-102.983	74.7362	-26.9648	-35.9736	64.7828	-27.6562	-57.2369	59.3434	-27.0459	-85.6186	60.7257	-32.5044	-13.1606	55.9197	-27.4753	-34.8461	50.1397	-31.2762	-57.8631	95.0538	-33.7868	23.2643	111.453	-34.1107	49.0641	129.049	-10.5612	21.9934	
248	2.06667	137.602	22.9718	34.2862	138.655	37.6105	2.35824	112.43	35.6137	-27.0502	83.8382	23.7931	-31.021	115.782	-3.25284	-44.5555	106.137	-6.75878	-69.2672	95.7072	-9.34728	-95.4656	98.7671	-22.9042	-48.7486	93.5656	-22.2365	-77.083	85.2852	-26.0167	-106.05	83.9277	-29.0278	-35.3666	78.075	-29.9278	-58.816	71.8636	-32.4233	-90.3627	67.3646	-34.0505	-14.3428	62.6323	-31.3836	-38.6804	60.1988	-37.3079	-64.8115	99.2127	-36.1942	20.8661	110.204	-40.5617	51.3437	129.863	-14.7262	23.9178	
249	2.075	141.325	17.0782	34.9149	144.988	29.1854	-1.28901	122.93	29.9204	-27.6862	92.0713	17.958	-32.6158	121.525	-11.5423	-46.3923	116.408	-12.9916	-72.0969	105.47	-17.4057	-96.338	105.083	-28.6479	-50.0782	101.458	-28.7393	-76.4844	92.4631	-35.3705	-108.197	89.5466	-34.1489	-39.9789	83.2066	-36.7065	-62.9883	80.0684	-38.6052	-91.7387	73.9682	-34.0731	-17.7861	65.5565	-37.4048	-40.0868	67.8906	-39.4621	-68.0438	103.475	-36.7869	18.9041	112.504	-39.2412	52.3908	132.775	-21.577	25.9371	
250	2.08333	147.532	14.0566	29.8667	153.192	26.9252	-0.981945	130.904	25.9444	-32.8941	101.359	16.0709	-33.7491	128.942	-15.0423	-47.9915	120.851	-19.9003	-69.2748	114.315	-22.1646	-96.0386	110.177	-30.3699	-46.769	103.621	-34.895	-77.1966	97.9207	-39.4793	-106.837	90.3898	-38.0598	-34.5933	86.087	-40.9647	-61.1438	84.4782	-44.0676	-92.2469	74.7571	-36.9416	-17.1587	71.3406	-39.8972	-43.3949	71.2484	-43.0405	-66.7623	105.362	-38.579	21.4787	113.489	-38.9122	49.7428	137.581	-21.5126	22.7579	
251	2.09167	153.22	11.3107	31.7648	156.686	21.1322	1.54739	137.169	22.3164	-29.4414	105.937	11.7662	-36.672	133.869	-17.2437	-42.3473	128.221	-21.5327	-72.6352	115.793	-27.6289	-99.9426	115.59	-31.5373	-46.0855	107.466	-35.6479	-77.6623	103.842	-40.6865	-105.556	95.129	-37.4848	-36.6331	87.9199	-42.3883	-60.9879	88.0674	-44.0161	-91.2131	75.8408	-38.3101	-17.2982	74.0828	-38.3292	-43.5311	76.0302	-44.6829	-66.4176	106.536	-40.5764	18.8319	110.6	-41.2824	50.6259	138.656	-24.3523	24.303	
252	2.1	154.485	9.7166	31.9107	160.675	15.8214	-2.30444	140.702	18.0718	-31.9632	112.793	13.61	-36.0587	131.352	-22.3121	-41.7718	127.06	-25.0723	-71.8202	120.322	-28.3645	-100.646	114.83	-33.0835	-47.1364	107.126	-37.0656	-74.6689	103.061	-41.2657	-108.953	95.2801	-36.7042	-37.0628	89.2976	-41.3822	-61.545	89.069	-44.6475	-91.2563	80.2482	-34.1954	-18.4247	73.1411	-38.148	-42.5962	72.9582	-44.4135	-65.3736	104.151	-41.7142	20.839	110.379	-42.1635	52.2105	138.162	-27.6235	26.1812	
253	2.10833	156.748	6.36388	29.7415	163.22	14.609	1.40677	142.846	14.8712	-35.1928	113.588	10.5136	-41.0171	135.807	-21.5703	-44.0151	129.453	-24.9046	-71.7945	121.92	-27.1439	-96.7715	116.5	-31.5299	-47.6443	106.937	-36.6817	-78.7132	103.616	-40.8363	-108.413	93.7082	-36.8848	-38.4567	90.0737	-37.6489	-61.4905	89.1038	-42.5372	-90.9998	76.6087	-33.1971	-18.1036	74.6615	-34.4749	-41.0405	73.4165	-42.2217	-64.6582	103.167	-38.5917	18.9684	114.553	-41.4457	50.8095	139.1	-29.1721	26.6682	
254	2.11667	155.37	6.11559	32.2018	162.592	12.6359	-0.0193038	144.024	14.1176	-31.2446	114.286	10.8033	-34.6699	130.984	-23.4712	-46.8539	124.82	-24.6302	-70.1779	118.566	-27.0006	-102.383	114.612	-31.0923	-47.4268	106.179	-34.4325	-78.5434	98.5133	-39.5298	-109.845	93.004	-34.8727	-38.9188	89.1898	-37.2128	-63.9662	86.0229	-40.8296	-93.0752	74.2757	-32.662	-18.7672	75.4802	-31.6247	-45.9725	72.6481	-36.7341	-65.9779	101.253	-39.1611	21.7082	113.619	-40.228	47.9789	140.445	-27.7327	26.621	
255	2.125	156.498	6.21377	32.772	162.477	10.5541	-3.24279	143.522	15.2785	-35.2005	110.633	11.7006	-38.6068	129.818	-21.1186	-43.7948	122.815	-24.1178	-72.7908	112.386	-26.7536	-102.058	109.482	-31.1425	-49.3312	100.827	-33.3274	-77.4117	93.7002	-36.8259	-104.938	89.5572	-32.6463	-35.9019	83.0971	-36.5546	-65.947	81.0433	-37.9558	-90.6008	71.1918	-30.8263	-17.8617	68.9934	-30.4448	-43.5382	69.1312	-34.9941	-64.4563	99.401	-36.6263	18.2255	110.745	-39.2951	52.0896	138.715	-26.0165	23.9347	
